<mxfile host="app.diagrams.net" agent="Mozilla/5.0 (Macintosh; Intel Mac OS X 10_15_7) AppleWebKit/537.36 (KHTML, like Gecko) Chrome/128.0.0.0 Safari/537.36" version="24.7.7">
  <diagram name="第 1 页" id="qZTAHNM4npRYEHCoVnOT">
    <mxGraphModel dx="853" dy="432" grid="1" gridSize="10" guides="1" tooltips="1" connect="1" arrows="1" fold="1" page="1" pageScale="1" pageWidth="1200" pageHeight="1920" math="0" shadow="0">
      <root>
        <mxCell id="0" />
        <mxCell id="1" parent="0" />
        <mxCell id="PgLJzFWGaRH6koLZOXl_-1" value="" style="rounded=0;whiteSpace=wrap;html=1;" vertex="1" parent="1">
          <mxGeometry x="230" y="570" width="530" height="110" as="geometry" />
        </mxCell>
        <mxCell id="PgLJzFWGaRH6koLZOXl_-2" value="" style="rounded=0;whiteSpace=wrap;html=1;" vertex="1" parent="1">
          <mxGeometry x="230" y="390" width="530" height="100" as="geometry" />
        </mxCell>
        <mxCell id="PgLJzFWGaRH6koLZOXl_-3" value="" style="rounded=0;whiteSpace=wrap;html=1;" vertex="1" parent="1">
          <mxGeometry x="235" y="150" width="530" height="150" as="geometry" />
        </mxCell>
        <mxCell id="PgLJzFWGaRH6koLZOXl_-4" value="" style="shape=flexArrow;endArrow=classic;startArrow=classic;html=1;rounded=0;exitX=0.5;exitY=0;exitDx=0;exitDy=0;entryX=0.5;entryY=1;entryDx=0;entryDy=0;dashed=1;" edge="1" parent="1" source="PgLJzFWGaRH6koLZOXl_-2" target="PgLJzFWGaRH6koLZOXl_-3">
          <mxGeometry width="100" height="100" relative="1" as="geometry">
            <mxPoint x="400" y="380" as="sourcePoint" />
            <mxPoint x="500" y="280" as="targetPoint" />
          </mxGeometry>
        </mxCell>
        <mxCell id="PgLJzFWGaRH6koLZOXl_-6" value="AMQ" style="edgeLabel;html=1;align=center;verticalAlign=middle;resizable=0;points=[];" vertex="1" connectable="0" parent="PgLJzFWGaRH6koLZOXl_-4">
          <mxGeometry x="0.1364" y="-5" relative="1" as="geometry">
            <mxPoint x="-5" y="1" as="offset" />
          </mxGeometry>
        </mxCell>
        <mxCell id="PgLJzFWGaRH6koLZOXl_-5" value="" style="shape=flexArrow;endArrow=classic;startArrow=classic;html=1;rounded=0;exitX=0.5;exitY=0;exitDx=0;exitDy=0;entryX=0.5;entryY=1;entryDx=0;entryDy=0;dashed=1;" edge="1" parent="1" source="PgLJzFWGaRH6koLZOXl_-1" target="PgLJzFWGaRH6koLZOXl_-2">
          <mxGeometry width="100" height="100" relative="1" as="geometry">
            <mxPoint x="490" y="570" as="sourcePoint" />
            <mxPoint x="490" y="460" as="targetPoint" />
          </mxGeometry>
        </mxCell>
        <mxCell id="PgLJzFWGaRH6koLZOXl_-7" value="AMQ" style="edgeLabel;html=1;align=center;verticalAlign=middle;resizable=0;points=[];" vertex="1" connectable="0" parent="PgLJzFWGaRH6koLZOXl_-5">
          <mxGeometry x="-0.0455" y="-3" relative="1" as="geometry">
            <mxPoint x="-3" as="offset" />
          </mxGeometry>
        </mxCell>
        <mxCell id="PgLJzFWGaRH6koLZOXl_-8" value="数据采集段" style="text;html=1;align=center;verticalAlign=middle;whiteSpace=wrap;rounded=0;fontSize=16;" vertex="1" parent="1">
          <mxGeometry x="240" y="580" width="120" height="30" as="geometry" />
        </mxCell>
        <mxCell id="PgLJzFWGaRH6koLZOXl_-9" value="ESC（事件服务）" style="rounded=0;whiteSpace=wrap;html=1;" vertex="1" parent="1">
          <mxGeometry x="240" y="767" width="120" height="60" as="geometry" />
        </mxCell>
        <mxCell id="PgLJzFWGaRH6koLZOXl_-10" value="DAC（设备驱动层）" style="rounded=0;whiteSpace=wrap;html=1;" vertex="1" parent="1">
          <mxGeometry x="435" y="767" width="120" height="60" as="geometry" />
        </mxCell>
        <mxCell id="PgLJzFWGaRH6koLZOXl_-11" value="第三方设备上报" style="rounded=0;whiteSpace=wrap;html=1;" vertex="1" parent="1">
          <mxGeometry x="620" y="767" width="120" height="60" as="geometry" />
        </mxCell>
        <mxCell id="PgLJzFWGaRH6koLZOXl_-12" value="" style="shape=flexArrow;endArrow=classic;startArrow=classic;html=1;rounded=0;exitX=0.5;exitY=0;exitDx=0;exitDy=0;entryX=0.13;entryY=0.993;entryDx=0;entryDy=0;dashed=1;entryPerimeter=0;" edge="1" parent="1" source="PgLJzFWGaRH6koLZOXl_-9" target="PgLJzFWGaRH6koLZOXl_-1">
          <mxGeometry width="100" height="100" relative="1" as="geometry">
            <mxPoint x="299.57" y="767" as="sourcePoint" />
            <mxPoint x="299.57" y="657" as="targetPoint" />
          </mxGeometry>
        </mxCell>
        <mxCell id="PgLJzFWGaRH6koLZOXl_-13" value="AMQ" style="edgeLabel;html=1;align=center;verticalAlign=middle;resizable=0;points=[];" vertex="1" connectable="0" parent="PgLJzFWGaRH6koLZOXl_-12">
          <mxGeometry x="-0.0455" y="-3" relative="1" as="geometry">
            <mxPoint x="-3" as="offset" />
          </mxGeometry>
        </mxCell>
        <mxCell id="PgLJzFWGaRH6koLZOXl_-20" value="" style="shape=flexArrow;endArrow=classic;startArrow=classic;html=1;rounded=0;exitX=0.5;exitY=0;exitDx=0;exitDy=0;entryX=0.13;entryY=0.993;entryDx=0;entryDy=0;dashed=1;entryPerimeter=0;" edge="1" parent="1">
          <mxGeometry width="100" height="100" relative="1" as="geometry">
            <mxPoint x="495.5" y="767" as="sourcePoint" />
            <mxPoint x="494.5" y="679" as="targetPoint" />
          </mxGeometry>
        </mxCell>
        <mxCell id="PgLJzFWGaRH6koLZOXl_-21" value="AMQ" style="edgeLabel;html=1;align=center;verticalAlign=middle;resizable=0;points=[];" vertex="1" connectable="0" parent="PgLJzFWGaRH6koLZOXl_-20">
          <mxGeometry x="-0.0455" y="-3" relative="1" as="geometry">
            <mxPoint x="-3" as="offset" />
          </mxGeometry>
        </mxCell>
        <mxCell id="PgLJzFWGaRH6koLZOXl_-22" value="" style="shape=flexArrow;endArrow=classic;startArrow=classic;html=1;rounded=0;exitX=0.5;exitY=0;exitDx=0;exitDy=0;entryX=0.13;entryY=0.993;entryDx=0;entryDy=0;dashed=1;entryPerimeter=0;" edge="1" parent="1">
          <mxGeometry width="100" height="100" relative="1" as="geometry">
            <mxPoint x="680.5" y="767" as="sourcePoint" />
            <mxPoint x="679.5" y="679" as="targetPoint" />
          </mxGeometry>
        </mxCell>
        <mxCell id="PgLJzFWGaRH6koLZOXl_-23" value="WebHook" style="edgeLabel;html=1;align=center;verticalAlign=middle;resizable=0;points=[];" vertex="1" connectable="0" parent="PgLJzFWGaRH6koLZOXl_-22">
          <mxGeometry x="-0.0455" y="-3" relative="1" as="geometry">
            <mxPoint x="-3" as="offset" />
          </mxGeometry>
        </mxCell>
        <mxCell id="PgLJzFWGaRH6koLZOXl_-24" value="封装成统一报文" style="rounded=1;whiteSpace=wrap;html=1;" vertex="1" parent="1">
          <mxGeometry x="620" y="620" width="90" height="40" as="geometry" />
        </mxCell>
        <mxCell id="PgLJzFWGaRH6koLZOXl_-29" value="" style="edgeStyle=orthogonalEdgeStyle;rounded=0;orthogonalLoop=1;jettySize=auto;html=1;" edge="1" parent="1" source="PgLJzFWGaRH6koLZOXl_-25" target="PgLJzFWGaRH6koLZOXl_-24">
          <mxGeometry relative="1" as="geometry" />
        </mxCell>
        <mxCell id="PgLJzFWGaRH6koLZOXl_-25" value="统一坐标系" style="rounded=1;whiteSpace=wrap;html=1;" vertex="1" parent="1">
          <mxGeometry x="460" y="620" width="90" height="40" as="geometry" />
        </mxCell>
        <mxCell id="PgLJzFWGaRH6koLZOXl_-28" value="" style="edgeStyle=orthogonalEdgeStyle;rounded=0;orthogonalLoop=1;jettySize=auto;html=1;" edge="1" parent="1" source="PgLJzFWGaRH6koLZOXl_-26" target="PgLJzFWGaRH6koLZOXl_-25">
          <mxGeometry relative="1" as="geometry" />
        </mxCell>
        <mxCell id="PgLJzFWGaRH6koLZOXl_-26" value="关联坐标和人/车/物" style="rounded=1;whiteSpace=wrap;html=1;" vertex="1" parent="1">
          <mxGeometry x="270" y="620" width="130" height="40" as="geometry" />
        </mxCell>
        <mxCell id="PgLJzFWGaRH6koLZOXl_-30" value="数据处理段" style="text;html=1;align=center;verticalAlign=middle;whiteSpace=wrap;rounded=0;fontSize=16;" vertex="1" parent="1">
          <mxGeometry x="240" y="400" width="120" height="30" as="geometry" />
        </mxCell>
        <mxCell id="PgLJzFWGaRH6koLZOXl_-32" value="相关信息入库" style="rounded=1;whiteSpace=wrap;html=1;" vertex="1" parent="1">
          <mxGeometry x="435" y="440" width="130" height="40" as="geometry" />
        </mxCell>
        <mxCell id="PgLJzFWGaRH6koLZOXl_-33" value="路线入库" style="rounded=1;whiteSpace=wrap;html=1;" vertex="1" parent="1">
          <mxGeometry x="260" y="440" width="130" height="40" as="geometry" />
        </mxCell>
        <mxCell id="PgLJzFWGaRH6koLZOXl_-35" value="电子围栏/异常报警" style="rounded=1;whiteSpace=wrap;html=1;" vertex="1" parent="1">
          <mxGeometry x="610" y="440" width="130" height="40" as="geometry" />
        </mxCell>
        <mxCell id="PgLJzFWGaRH6koLZOXl_-36" value="用户交互段" style="text;html=1;align=center;verticalAlign=middle;whiteSpace=wrap;rounded=0;fontSize=16;" vertex="1" parent="1">
          <mxGeometry x="230" y="160" width="120" height="30" as="geometry" />
        </mxCell>
        <mxCell id="PgLJzFWGaRH6koLZOXl_-38" value="定点设备位置" style="rounded=1;whiteSpace=wrap;html=1;" vertex="1" parent="1">
          <mxGeometry x="240" y="260" width="130" height="40" as="geometry" />
        </mxCell>
        <mxCell id="PgLJzFWGaRH6koLZOXl_-39" value="非定点设备人员绑定" style="rounded=1;whiteSpace=wrap;html=1;" vertex="1" parent="1">
          <mxGeometry x="420" y="260" width="130" height="40" as="geometry" />
        </mxCell>
        <mxCell id="PgLJzFWGaRH6koLZOXl_-41" value="电子围栏设置" style="rounded=1;whiteSpace=wrap;html=1;" vertex="1" parent="1">
          <mxGeometry x="600" y="260" width="130" height="40" as="geometry" />
        </mxCell>
        <mxCell id="PgLJzFWGaRH6koLZOXl_-42" value="psql" style="shape=cylinder3;whiteSpace=wrap;html=1;boundedLbl=1;backgroundOutline=1;size=15;" vertex="1" parent="1">
          <mxGeometry x="885" y="310" width="60" height="80" as="geometry" />
        </mxCell>
        <mxCell id="PgLJzFWGaRH6koLZOXl_-46" value="Redis" style="image;sketch=0;aspect=fixed;html=1;points=[];align=center;fontSize=12;image=img/lib/mscae/Cache_Redis_Product.svg;" vertex="1" parent="1">
          <mxGeometry x="890" y="630" width="50" height="42" as="geometry" />
        </mxCell>
        <mxCell id="PgLJzFWGaRH6koLZOXl_-47" value="MondogDB" style="dashed=0;outlineConnect=0;html=1;align=center;labelPosition=center;verticalLabelPosition=bottom;verticalAlign=top;shape=mxgraph.weblogos.mongodb" vertex="1" parent="1">
          <mxGeometry x="894.4" y="460" width="41.2" height="86.2" as="geometry" />
        </mxCell>
        <mxCell id="PgLJzFWGaRH6koLZOXl_-48" value="Gis展示人车物位置" style="rounded=1;whiteSpace=wrap;html=1;" vertex="1" parent="1">
          <mxGeometry x="240" y="200" width="130" height="40" as="geometry" />
        </mxCell>
        <mxCell id="PgLJzFWGaRH6koLZOXl_-49" value="展示指定对象路线" style="rounded=1;whiteSpace=wrap;html=1;" vertex="1" parent="1">
          <mxGeometry x="420" y="200" width="130" height="40" as="geometry" />
        </mxCell>
        <mxCell id="PgLJzFWGaRH6koLZOXl_-50" value="报警情况展示" style="rounded=1;whiteSpace=wrap;html=1;" vertex="1" parent="1">
          <mxGeometry x="600" y="200" width="130" height="40" as="geometry" />
        </mxCell>
      </root>
    </mxGraphModel>
  </diagram>
</mxfile>
